{
  "accessors": [
    {
      "bufferView": 2,
      "componentType": 5126,
      "count": 388,
      "max": [
        0.8742550611495972,
        3.5185012817382813,
        1.769358515739441
      ],
      "min": [
        -2.7930853366851807,
        -1.875950813293457,
        -1.4717649221420288
      ],
      "type": "VEC3"
    },
    {
      "bufferView": 2,
      "byteOffset": 4656,
      "componentType": 5126,
      "count": 388,
      "max": [
        1.0,
        1.0,
        1.0
      ],
      "min": [
        -1.0,
        -1.0,
        -1.0
      ],
      "type": "VEC3"
    },
    {
      "bufferView": 1,
      "componentType": 5126,
      "count": 388,
      "max": [
        1.0,
        1.0
      ],
      "min": [
        0.0,
        0.0
      ],
      "type": "VEC2"
    },
    {
      "bufferView": 0,
      "componentType": 5125,
      "count": 690,
      "type": "SCALAR"
    },
    {
      "bufferView": 2,
      "byteOffset": 9312,
      "componentType": 5126,
      "count": 876,
      "max": [
        0.8742551803588867,
        3.5185012817382813,
        1.7393584251403809
      ],
      "min": [
        -2.747410535812378,
        -1.8759506940841675,
        -1.7393585443496704
      ],
      "type": "VEC3"
    },
    {
      "bufferView": 2,
      "byteOffset": 19824,
      "componentType": 5126,
      "count": 876,
      "max": [
        0.9999997019767761,
        1.0,
        1.0
      ],
      "min": [
        -1.0,
        -1.0,
        -1.0
      ],
      "type": "VEC3"
    },
    {
      "bufferView": 3,
      "componentType": 5126,
      "count": 876,
      "max": [
        0.9998794198036194,
        0.9957146644592285,
        0.9904335737228394,
        1.0
      ],
      "min": [
        -0.9999813437461853,
        -0.9468257427215576,
        -0.9990734457969666,
        1.0
      ],
      "type": "VEC4"
    },
    {
      "bufferView": 1,
      "byteOffset": 3104,
      "componentType": 5126,
      "count": 876,
      "max": [
        0.8861527442932129,
        0.983138918876648
      ],
      "min": [
        0.09096992015838623,
        0.032486021518707275
      ],
      "type": "VEC2"
    },
    {
      "bufferView": 0,
      "byteOffset": 2760,
      "componentType": 5125,
      "count": 1560,
      "type": "SCALAR"
    },
    {
      "bufferView": 2,
      "byteOffset": 30336,
      "componentType": 5126,
      "count": 2477,
      "max": [
        0.8042550086975098,
        3.6185011863708496,
        2.634148120880127
      ],
      "min": [
        -2.723085403442383,
        -1.80595064163208,
        -1.4417657852172852
      ],
      "type": "VEC3"
    },
    {
      "bufferView": 2,
      "byteOffset": 60060,
      "componentType": 5126,
      "count": 2477,
      "max": [
        1.0,
        1.0,
        1.0
      ],
      "min": [
        -1.0,
        -1.0,
        -1.0
      ],
      "type": "VEC3"
    },
    {
      "bufferView": 1,
      "byteOffset": 10112,
      "componentType": 5126,
      "count": 2477,
      "max": [
        1.0,
        1.0
      ],
      "min": [
        0.0,
        0.0
      ],
      "type": "VEC2"
    },
    {
      "bufferView": 0,
      "byteOffset": 9000,
      "componentType": 5125,
      "count": 9024,
      "type": "SCALAR"
    },
    {
      "bufferView": 2,
      "byteOffset": 89784,
      "componentType": 5126,
      "count": 16233,
      "max": [
        -0.8563179969787598,
        3.326385974884033,
        1.982311725616455
      ],
      "min": [
        -0.8775333166122437,
        1.6326093673706055,
        1.7678561210632324
      ],
      "type": "VEC3"
    },
    {
      "bufferView": 2,
      "byteOffset": 284580,
      "componentType": 5126,
      "count": 16233,
      "max": [
        1.0,
        0.9972292184829712,
        0.9975727796554565
      ],
      "min": [
        -1.0,
        -1.0,
        -0.9988082051277161
      ],
      "type": "VEC3"
    },
    {
      "bufferView": 1,
      "byteOffset": 29928,
      "componentType": 5126,
      "count": 16233,
      "max": [
        1.0,
        1.0
      ],
      "min": [
        0.0,
        0.0
      ],
      "type": "VEC2"
    },
    {
      "bufferView": 0,
      "byteOffset": 45096,
      "componentType": 5125,
      "count": 70128,
      "type": "SCALAR"
    },
    {
      "bufferView": 2,
      "byteOffset": 479376,
      "componentType": 5126,
      "count": 13006,
      "max": [
        -2.454726219177246,
        0.19637107849121094,
        -0.8463833332061768
      ],
      "min": [
        -2.6456196308135986,
        -2.2069592475891113,
        -1.4467816352844238
      ],
      "type": "VEC3"
    },
    {
      "bufferView": 2,
      "byteOffset": 635448,
      "componentType": 5126,
      "count": 13006,
      "max": [
        0.9975562691688538,
        0.9969086647033691,
        0.9992029666900635
      ],
      "min": [
        -0.9975594282150269,
        -0.9972323179244995,
        -0.9997254610061646
      ],
      "type": "VEC3"
    },
    {
      "bufferView": 1,
      "byteOffset": 159792,
      "componentType": 5126,
      "count": 13006,
      "max": [
        1.0,
        1.0
      ],
      "min": [
        0.0,
        0.0
      ],
      "type": "VEC2"
    },
    {
      "bufferView": 1,
      "byteOffset": 263840,
      "componentType": 5126,
      "count": 13006,
      "max": [
        1.0,
        1.0
      ],
      "min": [
        0.0,
        0.0
      ],
      "type": "VEC2"
    },
    {
      "bufferView": 0,
      "byteOffset": 325608,
      "componentType": 5125,
      "count": 50898,
      "type": "SCALAR"
    },
    {
      "bufferView": 2,
      "byteOffset": 791520,
      "componentType": 5126,
      "count": 2848,
      "max": [
        0.8075735569000244,
        -0.12645602226257324,
        1.3390953540802002
      ],
      "min": [
        0.4251213073730469,
        -1.2479832172393799,
        0.16507863998413086
      ],
      "type": "VEC3"
    },
    {
      "bufferView": 2,
      "byteOffset": 825696,
      "componentType": 5126,
      "count": 2848,
      "max": [
        0.9975284934043884,
        0.9979287981987,
        0.9982249736785889
      ],
      "min": [
        -0.9975356459617615,
        -0.997658371925354,
        -0.9984821677207947
      ],
      "type": "VEC3"
    },
    {
      "bufferView": 1,
      "byteOffset": 367888,
      "componentType": 5126,
      "count": 2848,
      "max": [
        1.0,
        1.0
      ],
      "min": [
        0.0,
        0.0
      ],
      "type": "VEC2"
    },
    {
      "bufferView": 0,
      "byteOffset": 529200,
      "componentType": 5125,
      "count": 11220,
      "type": "SCALAR"
    }
  ],
  "asset": {
    "extras": {
      "author": "3d.sha.yin (https://sketchfab.com/3d.sha.yin)",
      "license": "CC-BY-4.0 (http://creativecommons.org/licenses/by/4.0/)",
      "source": "https://sketchfab.com/3d-models/stairs-road-2-nowhere-free-3d-low-poly-model-83c81e116e3e42ae9731430602a9e371",
      "title": "Stairs | Road 2 Nowhere | Free 3D Low-Poly Model"
    },
    "generator": "Sketchfab-11.66.0",
    "version": "2.0"
  },
  "bufferViews": [
    {
      "buffer": 0,
      "byteLength": 574080,
      "name": "floatBufferViews",
      "target": 34963
    },
    {
      "buffer": 0,
      "byteLength": 390672,
      "byteOffset": 574080,
      "byteStride": 8,
      "name": "floatBufferViews",
      "target": 34962
    },
    {
      "buffer": 0,
      "byteLength": 859872,
      "byteOffset": 964752,
      "byteStride": 12,
      "name": "floatBufferViews",
      "target": 34962
    },
    {
      "buffer": 0,
      "byteLength": 14016,
      "byteOffset": 1824624,
      "byteStride": 16,
      "name": "floatBufferViews",
      "target": 34962
    }
  ],
  "buffers": [
    {
      "byteLength": 1838640,
      "uri": "scene.bin"
    }
  ],
  "images": [
    {
      "uri": "textures/wood_baseColor.png"
    },
    {
      "uri": "textures/Concrete_baseColor.png"
    },
    {
      "uri": "textures/Concrete_normal.png"
    },
    {
      "uri": "textures/Handles_baseColor.png"
    },
    {
      "uri": "textures/Nowhere_baseColor.png"
    },
    {
      "uri": "textures/material_baseColor.png"
    }
  ],
  "materials": [
    {
      "doubleSided": true,
      "name": "wood",
      "pbrMetallicRoughness": {
        "baseColorTexture": {
          "index": 0
        },
        "metallicFactor": 0.0,
        "roughnessFactor": 0.6517200809879065
      }
    },
    {
      "doubleSided": true,
      "name": "Concrete",
      "normalTexture": {
        "index": 2
      },
      "pbrMetallicRoughness": {
        "baseColorTexture": {
          "index": 1
        },
        "metallicFactor": 0.0,
        "roughnessFactor": 0.12882518894138106
      }
    },
    {
      "doubleSided": true,
      "name": "Handles",
      "pbrMetallicRoughness": {
        "baseColorTexture": {
          "index": 3
        },
        "roughnessFactor": 0.8475134380203511
      }
    },
    {
      "doubleSided": true,
      "emissiveFactor": [
        0.5888900000000007,
        0.0,
        1.0
      ],
      "name": "Nowhere",
      "pbrMetallicRoughness": {
        "baseColorTexture": {
          "index": 4
        },
        "metallicFactor": 0.0,
        "roughnessFactor": 0.8211145618000169
      }
    },
    {
      "doubleSided": true,
      "emissiveFactor": [
        1.0,
        1.0,
        1.0
      ],
      "emissiveTexture": {
        "index": 4
      },
      "name": "Road",
      "pbrMetallicRoughness": {
        "baseColorTexture": {
          "index": 4
        },
        "metallicFactor": 0.0,
        "roughnessFactor": 0.8211145618000169
      }
    },
    {
      "doubleSided": true,
      "emissiveFactor": [
        0.0,
        0.08085000000000044,
        1.0
      ],
      "name": "material",
      "pbrMetallicRoughness": {
        "baseColorTexture": {
          "index": 5
        },
        "metallicFactor": 0.0,
        "roughnessFactor": 0.9825626070439964
      }
    }
  ],
  "meshes": [
    {
      "name": "Cube.002_wood_0",
      "primitives": [
        {
          "attributes": {
            "NORMAL": 1,
            "POSITION": 0,
            "TEXCOORD_0": 2
          },
          "indices": 3,
          "material": 0,
          "mode": 4
        }
      ]
    },
    {
      "name": "Cube.002_Concrete_0",
      "primitives": [
        {
          "attributes": {
            "NORMAL": 5,
            "POSITION": 4,
            "TANGENT": 6,
            "TEXCOORD_0": 7
          },
          "indices": 8,
          "material": 1,
          "mode": 4
        }
      ]
    },
    {
      "name": "Cube.002_Handles_0",
      "primitives": [
        {
          "attributes": {
            "NORMAL": 10,
            "POSITION": 9,
            "TEXCOORD_0": 11
          },
          "indices": 12,
          "material": 2,
          "mode": 4
        }
      ]
    },
    {
      "name": "Cube.002_Nowhere_0",
      "primitives": [
        {
          "attributes": {
            "NORMAL": 14,
            "POSITION": 13,
            "TEXCOORD_0": 15
          },
          "indices": 16,
          "material": 3,
          "mode": 4
        }
      ]
    },
    {
      "name": "Cube.002_Road_0",
      "primitives": [
        {
          "attributes": {
            "NORMAL": 18,
            "POSITION": 17,
            "TEXCOORD_0": 19,
            "TEXCOORD_1": 20
          },
          "indices": 21,
          "material": 4,
          "mode": 4
        }
      ]
    },
    {
      "name": "Cube.002_2_0",
      "primitives": [
        {
          "attributes": {
            "NORMAL": 23,
            "POSITION": 22,
            "TEXCOORD_0": 24
          },
          "indices": 25,
          "material": 5,
          "mode": 4
        }
      ]
    }
  ],
  "nodes": [
    {
      "children": [
        1
      ],
      "matrix": [
        1.0,
        0.0,
        0.0,
        0.0,
        0.0,
        2.220446049250313e-16,
        -1.0,
        0.0,
        0.0,
        1.0,
        2.220446049250313e-16,
        0.0,
        0.0,
        0.0,
        0.0,
        1.0
      ],
      "name": "Sketchfab_model"
    },
    {
      "children": [
        2
      ],
      "matrix": [
        0.009999999776482582,
        0.0,
        0.0,
        0.0,
        0.0,
        0.0,
        0.009999999776482582,
        0.0,
        0.0,
        -0.009999999776482582,
        0.0,
        0.0,
        0.0,
        0.0,
        0.0,
        1.0
      ],
      "name": "ca73451f99454df4b8573fff7d204709.fbx"
    },
    {
      "children": [
        3
      ],
      "name": "RootNode"
    },
    {
      "children": [
        4,
        5,
        6,
        7,
        8,
        9
      ],
      "matrix": [
        4.371139006309477e-06,
        -1.1102230246251565e-14,
        -99.99999999999991,
        0.0,
        -99.99999999999982,
        -4.371139006309477e-06,
        -4.371139011860592e-06,
        0.0,
        -4.371139011860592e-06,
        99.99999999999991,
        -1.9984014443252818e-13,
        0.0,
        -100.1695785522461,
        160.55616760253906,
        -261.3613586425781,
        1.0
      ],
      "name": "Cube.002"
    },
    {
      "mesh": 0,
      "name": "Cube.002_wood_0"
    },
    {
      "mesh": 1,
      "name": "Cube.002_Concrete_0"
    },
    {
      "mesh": 2,
      "name": "Cube.002_Handles_0"
    },
    {
      "mesh": 3,
      "name": "Cube.002_Nowhere_0"
    },
    {
      "mesh": 4,
      "name": "Cube.002_Road_0"
    },
    {
      "mesh": 5,
      "name": "Cube.002_2_0"
    }
  ],
  "samplers": [
    {
      "magFilter": 9729,
      "minFilter": 9987,
      "wrapS": 10497,
      "wrapT": 10497
    }
  ],
  "scene": 0,
  "scenes": [
    {
      "name": "Sketchfab_Scene",
      "nodes": [
        0
      ]
    }
  ],
  "textures": [
    {
      "sampler": 0,
      "source": 0
    },
    {
      "sampler": 0,
      "source": 1
    },
    {
      "sampler": 0,
      "source": 2
    },
    {
      "sampler": 0,
      "source": 3
    },
    {
      "sampler": 0,
      "source": 4
    },
    {
      "sampler": 0,
      "source": 5
    }
  ]
}
