{
  "accessors": [
    {
      "bufferView": 2,
      "componentType": 5126,
      "count": 9024,
      "max": [
        4.5524048805236816,
        0.2886120080947876,
        9.0112152099609375
      ],
      "min": [
        0.97068500518798828,
        -0.40707600116729736,
        0.6821020245552063
      ],
      "type": "VEC3"
    },
    {
      "bufferView": 2,
      "byteOffset": 108288,
      "componentType": 5126,
      "count": 9024,
      "max": [
        1,
        1,
        1
      ],
      "min": [
        -1,
        -1,
        -1
      ],
      "type": "VEC3"
    },
    {
      "bufferView": 3,
      "componentType": 5126,
      "count": 9024,
      "max": [
        1,
        1,
        1,
        1
      ],
      "min": [
        -0.92708802223205566,
        -1,
        -1,
        1
      ],
      "type": "VEC4"
    },
    {
      "bufferView": 1,
      "componentType": 5126,
      "count": 9024,
      "max": [
        0.91518098115921021,
        0.99800801277160645
      ],
      "min": [
        0.0018269999418407679,
        0.0019920000340789557
      ],
      "type": "VEC2"
    },
    {
      "bufferView": 0,
      "componentType": 5125,
      "count": 25626,
      "max": [
        9023
      ],
      "min": [
        0
      ],
      "type": "SCALAR"
    }
  ],
  "asset": {
    "extras": {
      "author": "Jackmcm (https://sketchfab.com/Jackmcm)",
      "license": "CC-BY-4.0 (http://creativecommons.org/licenses/by/4.0/)",
      "source": "https://sketchfab.com/3d-models/japanese-neon-street-sign-c91524e74c8c463ca3ddf71bc73911db",
      "title": "Japanese Neon Street Sign"
    },
    "generator": "Sketchfab-9.83.0",
    "version": "2.0"
  },
  "bufferViews": [
    {
      "buffer": 0,
      "byteLength": 102504,
      "byteOffset": 0,
      "name": "floatBufferViews",
      "target": 34963
    },
    {
      "buffer": 0,
      "byteLength": 72192,
      "byteOffset": 102504,
      "byteStride": 8,
      "name": "floatBufferViews",
      "target": 34962
    },
    {
      "buffer": 0,
      "byteLength": 216576,
      "byteOffset": 174696,
      "byteStride": 12,
      "name": "floatBufferViews",
      "target": 34962
    },
    {
      "buffer": 0,
      "byteLength": 144384,
      "byteOffset": 391272,
      "byteStride": 16,
      "name": "floatBufferViews",
      "target": 34962
    }
  ],
  "buffers": [
    {
      "byteLength": 535656,
      "uri": "scene.bin"
    }
  ],
  "images": [
    {
      "uri": "textures/typeBlinnSG_baseColor.png"
    },
    {
      "uri": "textures/typeBlinnSG_metallicRoughness.png"
    },
    {
      "uri": "textures/typeBlinnSG_emissive.jpeg"
    },
    {
      "uri": "textures/typeBlinnSG_normal.png"
    }
  ],
  "materials": [
    {
      "doubleSided": true,
      "emissiveFactor": [
        1,
        1,
        1
      ],
      "emissiveTexture": {
        "index": 2,
        "texCoord": 0
      },
      "name": "typeBlinnSG",
      "normalTexture": {
        "index": 3,
        "scale": 1,
        "texCoord": 0
      },
      "pbrMetallicRoughness": {
        "baseColorFactor": [
          1,
          1,
          1,
          1
        ],
        "baseColorTexture": {
          "index": 0,
          "texCoord": 0
        },
        "metallicFactor": 0.91373602320194081,
        "metallicRoughnessTexture": {
          "index": 1,
          "texCoord": 0
        },
        "roughnessFactor": 1
      }
    }
  ],
  "meshes": [
    {
      "primitives": [
        {
          "attributes": {
            "NORMAL": 1,
            "POSITION": 0,
            "TANGENT": 2,
            "TEXCOORD_0": 3
          },
          "indices": 4,
          "material": 0,
          "mode": 4
        }
      ]
    }
  ],
  "nodes": [
    {
      "children": [
        1
      ],
      "name": "RootNode (gltf orientation matrix)",
      "rotation": [
        -0.70710678118654746,
        -0,
        -0,
        0.70710678118654757
      ]
    },
    {
      "children": [
        2
      ],
      "matrix": [
        0.14021205902099609,
        0,
        0,
        0,
        0,
        0.14021205902099609,
        0,
        0,
        0,
        0,
        0.14021205902099609,
        0,
        0,
        0,
        0,
        1
      ],
      "name": "RootNode (model correction matrix)"
    },
    {
      "children": [
        3
      ],
      "name": "SIGN.obj.cleaner.materialmerger.gles"
    },
    {
      "mesh": 0,
      "name": ""
    }
  ],
  "samplers": [
    {
      "magFilter": 9729,
      "minFilter": 9987,
      "wrapS": 10497,
      "wrapT": 10497
    }
  ],
  "scene": 0,
  "scenes": [
    {
      "name": "OSG_Scene",
      "nodes": [
        0
      ]
    }
  ],
  "textures": [
    {
      "sampler": 0,
      "source": 0
    },
    {
      "sampler": 0,
      "source": 1
    },
    {
      "sampler": 0,
      "source": 2
    },
    {
      "sampler": 0,
      "source": 3
    }
  ]
}

