{
  "accessors": [
    {
      "bufferView": 2,
      "componentType": 5126,
      "count": 522,
      "max": [
        2.4231581687927246,
        0.2577228546142578,
        2.8600523471832275
      ],
      "min": [
        -2.196021795272827,
        -0.4966350793838501,
        -1.1854617595672607
      ],
      "type": "VEC3"
    },
    {
      "bufferView": 2,
      "byteOffset": 6264,
      "componentType": 5126,
      "count": 522,
      "max": [
        0.9141058921813965,
        0.9671444296836853,
        0.9043020009994507
      ],
      "min": [
        -0.9140971302986145,
        -1.0,
        -0.9043022990226746
      ],
      "type": "VEC3"
    },
    {
      "bufferView": 1,
      "componentType": 5126,
      "count": 522,
      "max": [
        0.996757984161377,
        1.0000009536743164
      ],
      "min": [
        0.0,
        0.00608400022611022
      ],
      "type": "VEC2"
    },
    {
      "bufferView": 1,
      "byteOffset": 4176,
      "componentType": 5126,
      "count": 522,
      "max": [
        0.996757984161377,
        1.0000009536743164
      ],
      "min": [
        0.0,
        0.00608400022611022
      ],
      "type": "VEC2"
    },
    {
      "bufferView": 0,
      "componentType": 5125,
      "count": 1008,
      "type": "SCALAR"
    },
    {
      "bufferView": 2,
      "byteOffset": 12528,
      "componentType": 5126,
      "count": 9634,
      "max": [
        2.183786392211914,
        0.390915185213089,
        2.8170511722564697
      ],
      "min": [
        -1.9617578983306885,
        -0.0843258649110794,
        -0.9889795780181885
      ],
      "type": "VEC3"
    },
    {
      "bufferView": 2,
      "byteOffset": 128136,
      "componentType": 5126,
      "count": 9634,
      "max": [
        0.9998778700828552,
        0.9999827146530151,
        0.9999998807907104
      ],
      "min": [
        -0.9997080564498901,
        -0.9999827146530151,
        -0.9999994039535522
      ],
      "type": "VEC3"
    },
    {
      "bufferView": 1,
      "byteOffset": 8352,
      "componentType": 5126,
      "count": 9634,
      "max": [
        1.0003639459609985,
        0.77879798412323
      ],
      "min": [
        0.21778300404548645,
        0.002102999947965145
      ],
      "type": "VEC2"
    },
    {
      "bufferView": 0,
      "byteOffset": 4032,
      "componentType": 5125,
      "count": 33768,
      "type": "SCALAR"
    }
  ],
  "asset": {
    "extras": {
      "author": "Twisty_z (https://sketchfab.com/Twisty_z)",
      "license": "CC-BY-4.0 (http://creativecommons.org/licenses/by/4.0/)",
      "source": "https://sketchfab.com/3d-models/mario-neon-sign-6a9dd1e5264940caa9c7d6741aa4d52a",
      "title": "Mario Neon Sign"
    },
    "generator": "Sketchfab-11.60.0",
    "version": "2.0"
  },
  "bufferViews": [
    {
      "buffer": 0,
      "byteLength": 139104,
      "name": "floatBufferViews",
      "target": 34963
    },
    {
      "buffer": 0,
      "byteLength": 85424,
      "byteOffset": 139104,
      "byteStride": 8,
      "name": "floatBufferViews",
      "target": 34962
    },
    {
      "buffer": 0,
      "byteLength": 243744,
      "byteOffset": 224528,
      "byteStride": 12,
      "name": "floatBufferViews",
      "target": 34962
    }
  ],
  "buffers": [
    {
      "byteLength": 468272,
      "uri": "scene.bin"
    }
  ],
  "images": [
    {
      "uri": "textures/Mario_Sign_baseColor.png"
    },
    {
      "uri": "textures/Mario_Sign_metallicRoughness.png"
    },
    {
      "uri": "textures/Mario_Neon_emissive.png"
    }
  ],
  "materials": [
    {
      "doubleSided": true,
      "name": "Mario_Sign",
      "pbrMetallicRoughness": {
        "baseColorTexture": {
          "index": 0
        },
        "metallicFactor": 0.0,
        "metallicRoughnessTexture": {
          "index": 1
        }
      }
    },
    {
      "doubleSided": true,
      "emissiveFactor": [
        1.0,
        1.0,
        1.0
      ],
      "emissiveTexture": {
        "index": 2
      },
      "name": "Mario_Neon",
      "pbrMetallicRoughness": {
        "baseColorTexture": {
          "index": 0
        },
        "metallicFactor": 0.0,
        "metallicRoughnessTexture": {
          "index": 1
        }
      }
    }
  ],
  "meshes": [
    {
      "name": "Mario_Neon_Sign_Mario_Sign_0",
      "primitives": [
        {
          "attributes": {
            "NORMAL": 1,
            "POSITION": 0,
            "TEXCOORD_0": 2,
            "TEXCOORD_1": 3
          },
          "indices": 4,
          "material": 0,
          "mode": 4
        }
      ]
    },
    {
      "name": "Mario_Neon_Sign_Mario_Neon_0",
      "primitives": [
        {
          "attributes": {
            "NORMAL": 6,
            "POSITION": 5,
            "TEXCOORD_0": 7
          },
          "indices": 8,
          "material": 1,
          "mode": 4
        }
      ]
    }
  ],
  "nodes": [
    {
      "children": [
        1
      ],
      "matrix": [
        1.0,
        0.0,
        0.0,
        0.0,
        0.0,
        2.220446049250313e-16,
        -1.0,
        0.0,
        0.0,
        1.0,
        2.220446049250313e-16,
        0.0,
        0.0,
        0.0,
        0.0,
        1.0
      ],
      "name": "Sketchfab_model"
    },
    {
      "children": [
        2
      ],
      "matrix": [
        0.009999999776482582,
        0.0,
        0.0,
        0.0,
        0.0,
        0.0,
        0.009999999776482582,
        0.0,
        0.0,
        -0.009999999776482582,
        0.0,
        0.0,
        0.0,
        0.0,
        0.0,
        1.0
      ],
      "name": "Mario Neon Sign.fbx"
    },
    {
      "children": [
        3
      ],
      "name": "RootNode"
    },
    {
      "children": [
        4,
        5
      ],
      "matrix": [
        100.0,
        0.0,
        0.0,
        0.0,
        0.0,
        -1.629206793918314e-05,
        -99.99999999999868,
        0.0,
        0.0,
        99.99999999999868,
        -1.629206793918314e-05,
        0.0,
        0.0,
        0.0,
        0.0,
        1.0
      ],
      "name": "Mario_Neon_Sign"
    },
    {
      "mesh": 0,
      "name": "Mario_Neon_Sign_Mario_Sign_0"
    },
    {
      "mesh": 1,
      "name": "Mario_Neon_Sign_Mario_Neon_0"
    }
  ],
  "samplers": [
    {
      "magFilter": 9729,
      "minFilter": 9987,
      "wrapS": 10497,
      "wrapT": 10497
    }
  ],
  "scene": 0,
  "scenes": [
    {
      "name": "Sketchfab_Scene",
      "nodes": [
        0
      ]
    }
  ],
  "textures": [
    {
      "sampler": 0,
      "source": 0
    },
    {
      "sampler": 0,
      "source": 1
    },
    {
      "sampler": 0,
      "source": 2
    }
  ]
}
