{
  "accessors": [
    {
      "bufferView": 2,
      "componentType": 5126,
      "count": 17777,
      "max": [
        2.1772201061248779,
        0.090552002191543579,
        0.57691198587417603
      ],
      "min": [
        0.056046001613140106,
        -0.0097580002620816231,
        -1.3470100164413452
      ],
      "type": "VEC3"
    },
    {
      "bufferView": 2,
      "byteOffset": 213324,
      "componentType": 5126,
      "count": 17777,
      "max": [
        0.9999997615814209,
        0.99999892711639404,
        1
      ],
      "min": [
        -1,
        -0.9999997615814209,
        -1
      ],
      "type": "VEC3"
    },
    {
      "bufferView": 3,
      "componentType": 5126,
      "count": 17777,
      "max": [
        0.99998503923416138,
        0.99999880790710449,
        1,
        1
      ],
      "min": [
        -0.99999934434890747,
        -0.99999362230300903,
        -0.99999606609344482,
        -1
      ],
      "type": "VEC4"
    },
    {
      "bufferView": 1,
      "componentType": 5126,
      "count": 17777,
      "max": [
        0.99518501758575439,
        0.99522000551223755
      ],
      "min": [
        0.0011879999656230211,
        0.0011879999656230211
      ],
      "type": "VEC2"
    },
    {
      "bufferView": 0,
      "componentType": 5125,
      "count": 73422,
      "max": [
        17776
      ],
      "min": [
        0
      ],
      "type": "SCALAR"
    },
    {
      "bufferView": 2,
      "byteOffset": 426648,
      "componentType": 5126,
      "count": 7607,
      "max": [
        1.8828500509262085,
        0.11503300070762634,
        0.57691198587417603
      ],
      "min": [
        0.39207598567008972,
        0.010509000159800053,
        -1.3470100164413452
      ],
      "type": "VEC3"
    },
    {
      "bufferView": 2,
      "byteOffset": 517932,
      "componentType": 5126,
      "count": 7607,
      "max": [
        0.99999988079071045,
        0.99999749660491943,
        0.99999868869781494
      ],
      "min": [
        -1,
        -0.99999690055847168,
        -0.99999523162841797
      ],
      "type": "VEC3"
    },
    {
      "bufferView": 3,
      "byteOffset": 284432,
      "componentType": 5126,
      "count": 7607,
      "max": [
        0.99999743700027466,
        0.98011255264282227,
        0.99999618530273438,
        1
      ],
      "min": [
        -0.99999874830245972,
        -0.99052375555038452,
        -0.99999964237213135,
        -1
      ],
      "type": "VEC4"
    },
    {
      "bufferView": 1,
      "byteOffset": 142216,
      "componentType": 5126,
      "count": 7607,
      "max": [
        0.99521499872207642,
        0.99516701698303223
      ],
      "min": [
        0.0011879999656230211,
        0.0011879999656230211
      ],
      "type": "VEC2"
    },
    {
      "bufferView": 0,
      "byteOffset": 293688,
      "componentType": 5125,
      "count": 29508,
      "max": [
        7606
      ],
      "min": [
        0
      ],
      "type": "SCALAR"
    }
  ],
  "asset": {
    "extras": {
      "author": "yimmyramiro (https://sketchfab.com/yimmyramiro)",
      "license": "CC-BY-4.0 (http://creativecommons.org/licenses/by/4.0/)",
      "source": "https://sketchfab.com/3d-models/letras-neon-d72f04926e334bb79e4ffa43fae59ead",
      "title": "Letras Neon"
    },
    "generator": "Sketchfab-7.39.0",
    "version": "2.0"
  },
  "bufferViews": [
    {
      "buffer": 0,
      "byteLength": 411720,
      "byteOffset": 0,
      "name": "floatBufferViews",
      "target": 34963
    },
    {
      "buffer": 0,
      "byteLength": 203072,
      "byteOffset": 411720,
      "byteStride": 8,
      "name": "floatBufferViews",
      "target": 34962
    },
    {
      "buffer": 0,
      "byteLength": 609216,
      "byteOffset": 614792,
      "byteStride": 12,
      "name": "floatBufferViews",
      "target": 34962
    },
    {
      "buffer": 0,
      "byteLength": 406144,
      "byteOffset": 1224008,
      "byteStride": 16,
      "name": "floatBufferViews",
      "target": 34962
    }
  ],
  "buffers": [
    {
      "byteLength": 1630152,
      "uri": "scene.bin"
    }
  ],
  "images": [
    {
      "uri": "textures/Color_baseColor.png"
    },
    {
      "uri": "textures/Color_metallicRoughness.png"
    },
    {
      "uri": "textures/Color_emissive.png"
    },
    {
      "uri": "textures/Color_normal.png"
    },
    {
      "uri": "textures/Nocolor_baseColor.png"
    },
    {
      "uri": "textures/Nocolor_metallicRoughness.png"
    },
    {
      "uri": "textures/Nocolor_normal.png"
    }
  ],
  "materials": [
    {
      "doubleSided": true,
      "emissiveFactor": [
        1,
        1,
        1
      ],
      "emissiveTexture": {
        "index": 2,
        "texCoord": 0
      },
      "name": "Color",
      "normalTexture": {
        "index": 3,
        "scale": 1,
        "texCoord": 0
      },
      "occlusionTexture": {
        "index": 1,
        "strength": 1,
        "texCoord": 0
      },
      "pbrMetallicRoughness": {
        "baseColorFactor": [
          1,
          1,
          1,
          1
        ],
        "baseColorTexture": {
          "index": 0,
          "texCoord": 0
        },
        "metallicFactor": 1,
        "metallicRoughnessTexture": {
          "index": 1,
          "texCoord": 0
        },
        "roughnessFactor": 1
      }
    },
    {
      "doubleSided": true,
      "emissiveFactor": [
        0,
        0,
        0
      ],
      "name": "Nocolor",
      "normalTexture": {
        "index": 6,
        "scale": 1,
        "texCoord": 0
      },
      "occlusionTexture": {
        "index": 5,
        "strength": 1,
        "texCoord": 0
      },
      "pbrMetallicRoughness": {
        "baseColorFactor": [
          1,
          1,
          1,
          1
        ],
        "baseColorTexture": {
          "index": 4,
          "texCoord": 0
        },
        "metallicFactor": 1,
        "metallicRoughnessTexture": {
          "index": 5,
          "texCoord": 0
        },
        "roughnessFactor": 1
      }
    }
  ],
  "meshes": [
    {
      "primitives": [
        {
          "attributes": {
            "NORMAL": 1,
            "POSITION": 0,
            "TANGENT": 2,
            "TEXCOORD_0": 3
          },
          "indices": 4,
          "material": 0,
          "mode": 4
        }
      ]
    },
    {
      "primitives": [
        {
          "attributes": {
            "NORMAL": 6,
            "POSITION": 5,
            "TANGENT": 7,
            "TEXCOORD_0": 8
          },
          "indices": 9,
          "material": 1,
          "mode": 4
        }
      ]
    }
  ],
  "nodes": [
    {
      "children": [
        1
      ],
      "name": "RootNode (gltf orientation matrix)",
      "rotation": [
        -0.70710678118654746,
        -0,
        -0,
        0.70710678118654757
      ]
    },
    {
      "children": [
        2
      ],
      "name": "RootNode (model correction matrix)"
    },
    {
      "children": [
        3,
        4
      ],
      "name": "LetrasNeonPintada.obj.cleaner.materialmerger.gles"
    },
    {
      "mesh": 0,
      "name": ""
    },
    {
      "mesh": 1,
      "name": ""
    }
  ],
  "samplers": [
    {
      "magFilter": 9729,
      "minFilter": 9987,
      "wrapS": 10497,
      "wrapT": 10497
    }
  ],
  "scene": 0,
  "scenes": [
    {
      "name": "OSG_Scene",
      "nodes": [
        0
      ]
    }
  ],
  "textures": [
    {
      "sampler": 0,
      "source": 0
    },
    {
      "sampler": 0,
      "source": 1
    },
    {
      "sampler": 0,
      "source": 2
    },
    {
      "sampler": 0,
      "source": 3
    },
    {
      "sampler": 0,
      "source": 4
    },
    {
      "sampler": 0,
      "source": 5
    },
    {
      "sampler": 0,
      "source": 6
    }
  ]
}

